<svg width="938.43" height="157.404" viewBox="0 0 248.293 41.647" xml:space="preserve" xmlns="http://www.w3.org/2000/svg">
    <path style="font-size:50.8002px;font-family:Plaster;-inkscape-font-specification:Plaster;letter-spacing:-3.16708px;display:inline;stroke:none;stroke-width:0;stroke-dasharray:none" d="M62.442 0a6.672 6.672 0 0 0-6.673 6.672 6.672 6.672 0 0 0 6.673 6.673 6.672 6.672 0 0 0 6.672-6.673A6.672 6.672 0 0 0 62.442 0Zm52.949 0a6.672 6.672 0 0 0-6.673 6.672 6.672 6.672 0 0 0 6.673 6.673 6.672 6.672 0 0 0 6.672-6.673A6.672 6.672 0 0 0 115.391 0ZM0 7.863v33.784H13.79V7.863Zm18.454 0v33.784h13.792V7.863Zm18.406 0v33.784h13.717V18.702c0-1.753-.19-3.299-.57-4.638-1.192-4.134-4.83-6.201-10.915-6.201Zm90.023 0v33.784h13.792V7.863Zm18.455 0v33.784h13.792V7.863Zm18.405 0v33.784h13.717V18.702c0-1.753-.19-3.299-.57-4.638-1.191-4.134-4.829-6.201-10.914-6.201zm-90.876.024v33.76h13.345V7.887Zm18.009 0v33.76h13.717v-22.92c0-1.753-.199-3.307-.596-4.663-1.174-4.118-4.804-6.177-10.889-6.177Zm125.692 0v33.76h13.345V7.887Zm18.009 0v33.76h13.717v-22.92c0-1.753-.199-3.307-.596-4.663-1.174-4.118-4.804-6.177-10.889-6.177zm-35.174 0v33.76a17.027 17.027 0 0 0 14.871-16.874 17.027 17.027 0 0 0-14.871-16.885Zm-4.313.013a17.027 17.027 0 0 0-14.87 16.873 17.027 17.027 0 0 0 14.87 16.873ZM55.77 16.37v25.277h13.344V16.37Zm52.948 0v25.277h13.345V16.37Z"/>
    <g style="display:inline;stroke:none;stroke-width:0;stroke-dasharray:none">
        <path d="M215.825 162.485h-29.687a14.844 14.844 0 0 0 14.844 14.843 14.844 14.844 0 0 0 14.843-14.843z" fill="#eee" style="color:#000;font-style:normal;font-variant:normal;font-weight:400;font-stretch:normal;font-size:medium;line-height:normal;font-family:sans-serif;font-variant-ligatures:normal;font-variant-position:normal;font-variant-caps:normal;font-variant-numeric:normal;font-variant-alternates:normal;font-variant-east-asian:normal;font-feature-settings:normal;font-variation-settings:normal;text-indent:0;text-align:start;text-decoration-line:none;text-decoration-style:solid;text-decoration-color:#000;letter-spacing:normal;word-spacing:normal;text-transform:none;writing-mode:lr-tb;direction:ltr;text-orientation:mixed;dominant-baseline:auto;baseline-shift:baseline;text-anchor:start;white-space:normal;shape-padding:0;shape-margin:0;inline-size:0;clip-rule:nonzero;display:inline;overflow:visible;visibility:visible;isolation:auto;mix-blend-mode:normal;color-interpolation:sRGB;color-interpolation-filters:linearRGB;solid-color:#000;solid-opacity:1;fill:#eee;fill-opacity:1;fill-rule:nonzero;stroke:none;stroke-width:0;stroke-linecap:butt;stroke-linejoin:miter;stroke-miterlimit:4;stroke-dasharray:none;stroke-dashoffset:0;stroke-opacity:1;color-rendering:auto;image-rendering:auto;shape-rendering:auto;text-rendering:auto;enable-background:accumulate;stop-color:#000;stop-opacity:1" transform="matrix(.78292 0 0 .78292 39.895 -102.445)"/>
        <path d="M200.982 147.64a14.844 14.844 0 0 0-14.844 14.845h29.687a14.844 14.844 0 0 0-14.843-14.844z" fill="#ea3a30" style="color:#000;font-style:normal;font-variant:normal;font-weight:400;font-stretch:normal;font-size:medium;line-height:normal;font-family:sans-serif;font-variant-ligatures:normal;font-variant-position:normal;font-variant-caps:normal;font-variant-numeric:normal;font-variant-alternates:normal;font-variant-east-asian:normal;font-feature-settings:normal;font-variation-settings:normal;text-indent:0;text-align:start;text-decoration-line:none;text-decoration-style:solid;text-decoration-color:#000;letter-spacing:normal;word-spacing:normal;text-transform:none;writing-mode:lr-tb;direction:ltr;text-orientation:mixed;dominant-baseline:auto;baseline-shift:baseline;text-anchor:start;white-space:normal;shape-padding:0;shape-margin:0;inline-size:0;clip-rule:nonzero;display:inline;overflow:visible;visibility:visible;isolation:auto;mix-blend-mode:normal;color-interpolation:sRGB;color-interpolation-filters:linearRGB;solid-color:#000;solid-opacity:1;fill:#ea3a30;fill-opacity:1;fill-rule:nonzero;stroke:none;stroke-width:0;stroke-linecap:butt;stroke-linejoin:miter;stroke-miterlimit:4;stroke-dasharray:none;stroke-dashoffset:0;stroke-opacity:1;color-rendering:auto;image-rendering:auto;shape-rendering:auto;text-rendering:auto;enable-background:accumulate;stop-color:#000;stop-opacity:1" transform="matrix(.78292 0 0 .78292 39.895 -102.445)"/>
        <path style="color:#000;font-style:normal;font-variant:normal;font-weight:400;font-stretch:normal;font-size:medium;line-height:normal;font-family:sans-serif;font-variant-ligatures:normal;font-variant-position:normal;font-variant-caps:normal;font-variant-numeric:normal;font-variant-alternates:normal;font-variant-east-asian:normal;font-feature-settings:normal;font-variation-settings:normal;text-indent:0;text-align:start;text-decoration-line:none;text-decoration-style:solid;text-decoration-color:#000;letter-spacing:normal;word-spacing:normal;text-transform:none;writing-mode:lr-tb;direction:ltr;text-orientation:mixed;dominant-baseline:auto;baseline-shift:baseline;text-anchor:start;white-space:normal;shape-padding:0;shape-margin:0;inline-size:0;clip-rule:nonzero;display:inline;overflow:visible;visibility:visible;isolation:auto;mix-blend-mode:normal;color-interpolation:sRGB;color-interpolation-filters:linearRGB;solid-color:#000;solid-opacity:1;fill:#000;fill-opacity:1;fill-rule:nonzero;stroke:none;stroke-width:0;stroke-linecap:butt;stroke-linejoin:miter;stroke-miterlimit:4;stroke-dasharray:none;stroke-dashoffset:0;stroke-opacity:1;color-rendering:auto;image-rendering:auto;shape-rendering:auto;text-rendering:auto;enable-background:accumulate;stop-color:#000;stop-opacity:1" d="M200.98 157.127c-2.382 0-4.417 1.582-5.106 3.746h-10.198a14.85 14.85 0 0 0-.117 1.612c.01.538.048 1.076.116 1.61h10.198c.69 2.165 2.725 3.749 5.107 3.749 2.383 0 4.42-1.584 5.11-3.748h10.198c.068-.535.106-1.073.115-1.611 0-.539-.031-1.077-.09-1.612h-10.224c-.69-2.164-2.727-3.746-5.109-3.746zm0 2.764c.835 0 1.568.382 2.04.982h-4.08a2.577 2.577 0 0 1 2.04-.982zm-2.04 4.205h4.08c-.472.6-1.205.982-2.04.982a2.577 2.577 0 0 1-2.04-.982z" transform="matrix(.78292 0 0 .78292 39.895 -102.445)"/>
        <path style="display:inline;fill:#fff;stroke:none;stroke-width:0;stroke-linecap:round;stroke-linejoin:round;stroke-miterlimit:2.3;stroke-dasharray:none" d="M203.808 162.485a2.827 2.827 0 0 1-2.827 2.827 2.827 2.827 0 0 1-2.827-2.827 2.827 2.827 0 0 1 2.827-2.827 2.827 2.827 0 0 1 2.827 2.827z" transform="matrix(.78292 0 0 .78292 39.895 -102.445)"/>
    </g>
</svg>
